<mxfile host="app.diagrams.net" agent="Mozilla/5.0 (Macintosh; Intel Mac OS X 10_15_7) AppleWebKit/537.36 (KHTML, like Gecko) Chrome/135.0.0.0 Safari/537.36" version="26.2.15">
  <diagram name="Page-1" id="xiD79JT3vUSzCvXRsIUr">
    <mxGraphModel dx="748" dy="479" grid="1" gridSize="10" guides="1" tooltips="1" connect="1" arrows="1" fold="1" page="1" pageScale="1" pageWidth="850" pageHeight="1100" math="0" shadow="0">
      <root>
        <mxCell id="0" />
        <mxCell id="1" parent="0" />
        <mxCell id="97Chy65jWuC5q2Ija_HS-1" value="" style="rounded=0;whiteSpace=wrap;html=1;dashed=1;strokeWidth=1;fillColor=none;strokeColor=#FF8000;fontFamily=Georgia;" parent="1" vertex="1">
          <mxGeometry x="210" y="293" width="410" height="99" as="geometry" />
        </mxCell>
        <mxCell id="97Chy65jWuC5q2Ija_HS-4" value="&lt;font&gt;job&lt;/font&gt;" style="rounded=1;whiteSpace=wrap;html=1;strokeWidth=0.5;fontFamily=Lucida Console;fillColor=#808080;fontColor=light-dark(#fcfcfc, #ededed);strokeColor=none;" parent="1" vertex="1">
          <mxGeometry x="426" y="399" width="70" height="20" as="geometry" />
        </mxCell>
        <mxCell id="97Chy65jWuC5q2Ija_HS-5" value="" style="points=[];aspect=fixed;html=1;align=center;shadow=0;dashed=0;fillColor=light-dark(#bdbab7, #e9690e);strokeColor=none;shape=mxgraph.alibaba_cloud.user;" parent="1" vertex="1">
          <mxGeometry x="376" y="200" width="30" height="30" as="geometry" />
        </mxCell>
        <mxCell id="97Chy65jWuC5q2Ija_HS-7" value="&lt;font&gt;job&lt;/font&gt;" style="rounded=1;whiteSpace=wrap;html=1;strokeWidth=0.5;fontFamily=Lucida Console;fillColor=#808080;fontColor=light-dark(#fcfcfc, #ededed);strokeColor=none;" parent="1" vertex="1">
          <mxGeometry x="426" y="429" width="70" height="20" as="geometry" />
        </mxCell>
        <mxCell id="97Chy65jWuC5q2Ija_HS-8" value="&lt;font&gt;job&lt;/font&gt;" style="rounded=1;whiteSpace=wrap;html=1;strokeWidth=0.5;fontFamily=Lucida Console;fillColor=#808080;fontColor=light-dark(#fcfcfc, #ededed);strokeColor=none;" parent="1" vertex="1">
          <mxGeometry x="426" y="459" width="70" height="20" as="geometry" />
        </mxCell>
        <mxCell id="97Chy65jWuC5q2Ija_HS-9" value="&lt;font&gt;user&lt;/font&gt;" style="rounded=1;whiteSpace=wrap;html=1;strokeWidth=0.5;fontFamily=Lucida Console;fillColor=#ffe6cc;strokeColor=none;" parent="1" vertex="1">
          <mxGeometry x="306" y="335" width="69" height="20" as="geometry" />
        </mxCell>
        <mxCell id="97Chy65jWuC5q2Ija_HS-12" value="" style="endArrow=blockThin;html=1;rounded=0;strokeWidth=0.5;endFill=1;strokeColor=default;exitX=0.5;exitY=1;exitDx=0;exitDy=0;entryX=0.5;entryY=0;entryDx=0;entryDy=0;" parent="1" source="97Chy65jWuC5q2Ija_HS-52" target="97Chy65jWuC5q2Ija_HS-9" edge="1">
          <mxGeometry width="50" height="50" relative="1" as="geometry">
            <mxPoint x="240" y="433" as="sourcePoint" />
            <mxPoint x="345" y="323" as="targetPoint" />
            <Array as="points">
              <mxPoint x="390" y="313" />
              <mxPoint x="340" y="313" />
            </Array>
          </mxGeometry>
        </mxCell>
        <mxCell id="97Chy65jWuC5q2Ija_HS-30" value="Restful" style="edgeLabel;html=1;align=center;verticalAlign=middle;resizable=0;points=[];fontFamily=Lucida Console;" parent="97Chy65jWuC5q2Ija_HS-12" vertex="1" connectable="0">
          <mxGeometry x="-0.8228" y="1" relative="1" as="geometry">
            <mxPoint as="offset" />
          </mxGeometry>
        </mxCell>
        <mxCell id="97Chy65jWuC5q2Ija_HS-14" value="&lt;font&gt;api&lt;/font&gt;" style="rounded=1;whiteSpace=wrap;html=1;strokeWidth=0.5;fontFamily=Lucida Console;fillColor=#ffe6cc;strokeColor=none;" parent="1" vertex="1">
          <mxGeometry x="390" y="335" width="70" height="20" as="geometry" />
        </mxCell>
        <mxCell id="97Chy65jWuC5q2Ija_HS-15" value="&lt;font&gt;ai copilot&lt;/font&gt;" style="rounded=1;whiteSpace=wrap;html=1;strokeWidth=0.5;fontFamily=Lucida Console;fillColor=#ffe6cc;strokeColor=none;" parent="1" vertex="1">
          <mxGeometry x="223" y="335" width="70" height="20" as="geometry" />
        </mxCell>
        <mxCell id="97Chy65jWuC5q2Ija_HS-16" value="" style="endArrow=blockThin;html=1;rounded=0;strokeWidth=0.5;endFill=1;strokeColor=default;entryX=0.5;entryY=0;entryDx=0;entryDy=0;" parent="1" target="97Chy65jWuC5q2Ija_HS-15" edge="1">
          <mxGeometry width="50" height="50" relative="1" as="geometry">
            <mxPoint x="390" y="313" as="sourcePoint" />
            <mxPoint x="356" y="345" as="targetPoint" />
            <Array as="points">
              <mxPoint x="258" y="313" />
            </Array>
          </mxGeometry>
        </mxCell>
        <mxCell id="97Chy65jWuC5q2Ija_HS-18" value="" style="endArrow=blockThin;html=1;rounded=0;strokeWidth=0.5;endFill=1;strokeColor=default;entryX=0.5;entryY=0;entryDx=0;entryDy=0;" parent="1" target="97Chy65jWuC5q2Ija_HS-14" edge="1">
          <mxGeometry width="50" height="50" relative="1" as="geometry">
            <mxPoint x="350" y="313" as="sourcePoint" />
            <mxPoint x="275" y="345" as="targetPoint" />
            <Array as="points">
              <mxPoint x="425" y="313" />
            </Array>
          </mxGeometry>
        </mxCell>
        <mxCell id="97Chy65jWuC5q2Ija_HS-19" value="" style="endArrow=blockThin;html=1;rounded=0;strokeWidth=0.5;endFill=1;strokeColor=default;exitX=1;exitY=0.5;exitDx=0;exitDy=0;entryX=0;entryY=0.5;entryDx=0;entryDy=0;dashed=1;" parent="1" source="97Chy65jWuC5q2Ija_HS-14" target="97Chy65jWuC5q2Ija_HS-23" edge="1">
          <mxGeometry width="50" height="50" relative="1" as="geometry">
            <mxPoint x="430" y="363" as="sourcePoint" />
            <mxPoint x="480" y="393" as="targetPoint" />
            <Array as="points" />
          </mxGeometry>
        </mxCell>
        <mxCell id="97Chy65jWuC5q2Ija_HS-20" value="&lt;font&gt;report&lt;/font&gt;" style="rounded=1;whiteSpace=wrap;html=1;strokeWidth=0.5;fontFamily=Lucida Console;fillColor=#808080;fontColor=light-dark(#fcfcfc, #ededed);strokeColor=none;" parent="1" vertex="1">
          <mxGeometry x="534" y="399" width="70" height="20" as="geometry" />
        </mxCell>
        <mxCell id="97Chy65jWuC5q2Ija_HS-21" value="&lt;font&gt;report&lt;/font&gt;" style="rounded=1;whiteSpace=wrap;html=1;strokeWidth=0.5;fontFamily=Lucida Console;fillColor=#808080;fontColor=light-dark(#fcfcfc, #ededed);strokeColor=none;" parent="1" vertex="1">
          <mxGeometry x="534" y="429" width="70" height="20" as="geometry" />
        </mxCell>
        <mxCell id="97Chy65jWuC5q2Ija_HS-22" value="&lt;font&gt;report&lt;/font&gt;" style="rounded=1;whiteSpace=wrap;html=1;strokeWidth=0.5;fontFamily=Lucida Console;fillColor=#808080;fontColor=light-dark(#fcfcfc, #ededed);strokeColor=none;" parent="1" vertex="1">
          <mxGeometry x="534" y="459" width="70" height="20" as="geometry" />
        </mxCell>
        <mxCell id="97Chy65jWuC5q2Ija_HS-23" value="task" style="rounded=1;whiteSpace=wrap;html=1;strokeWidth=0.5;fontFamily=Lucida Console;fillColor=#ffe6cc;strokeColor=none;" parent="1" vertex="1">
          <mxGeometry x="483" y="335" width="70" height="20" as="geometry" />
        </mxCell>
        <mxCell id="97Chy65jWuC5q2Ija_HS-24" value="" style="endArrow=blockThin;html=1;rounded=0;strokeWidth=0.5;endFill=1;strokeColor=default;entryX=0.5;entryY=0;entryDx=0;entryDy=0;" parent="1" target="97Chy65jWuC5q2Ija_HS-23" edge="1">
          <mxGeometry width="50" height="50" relative="1" as="geometry">
            <mxPoint x="350" y="313" as="sourcePoint" />
            <mxPoint x="435" y="345" as="targetPoint" />
            <Array as="points">
              <mxPoint x="518" y="313" />
            </Array>
          </mxGeometry>
        </mxCell>
        <mxCell id="97Chy65jWuC5q2Ija_HS-26" value="" style="endArrow=blockThin;html=1;rounded=0;strokeWidth=0.5;endFill=1;strokeColor=default;exitX=0.534;exitY=-0.002;exitDx=0;exitDy=0;entryX=0.5;entryY=1;entryDx=0;entryDy=0;dashed=1;exitPerimeter=0;" parent="1" source="97Chy65jWuC5q2Ija_HS-49" target="97Chy65jWuC5q2Ija_HS-23" edge="1">
          <mxGeometry width="50" height="50" relative="1" as="geometry">
            <mxPoint x="470" y="355" as="sourcePoint" />
            <mxPoint x="493" y="355" as="targetPoint" />
            <Array as="points">
              <mxPoint x="460" y="383" />
              <mxPoint x="518" y="383" />
            </Array>
          </mxGeometry>
        </mxCell>
        <mxCell id="97Chy65jWuC5q2Ija_HS-27" value="" style="endArrow=blockThin;html=1;rounded=0;strokeWidth=0.5;endFill=1;strokeColor=default;exitX=0.5;exitY=1;exitDx=0;exitDy=0;entryX=0.25;entryY=1;entryDx=0;entryDy=0;dashed=1;" parent="1" source="97Chy65jWuC5q2Ija_HS-9" target="97Chy65jWuC5q2Ija_HS-23" edge="1">
          <mxGeometry width="50" height="50" relative="1" as="geometry">
            <mxPoint x="346" y="360" as="sourcePoint" />
            <mxPoint x="500.5" y="360" as="targetPoint" />
            <Array as="points">
              <mxPoint x="341" y="370" />
              <mxPoint x="500" y="370" />
            </Array>
          </mxGeometry>
        </mxCell>
        <mxCell id="97Chy65jWuC5q2Ija_HS-28" value="" style="endArrow=blockThin;html=1;rounded=0;strokeWidth=0.5;endFill=1;strokeColor=default;exitX=1;exitY=0.5;exitDx=0;exitDy=0;entryX=0;entryY=0.5;entryDx=0;entryDy=0;dashed=1;" parent="1" source="97Chy65jWuC5q2Ija_HS-9" target="97Chy65jWuC5q2Ija_HS-14" edge="1">
          <mxGeometry width="50" height="50" relative="1" as="geometry">
            <mxPoint x="390" y="354.49" as="sourcePoint" />
            <mxPoint x="413" y="354.49" as="targetPoint" />
            <Array as="points" />
          </mxGeometry>
        </mxCell>
        <mxCell id="97Chy65jWuC5q2Ija_HS-32" value="kafka" style="whiteSpace=wrap;html=1;aspect=fixed;fontFamily=Lucida Console;strokeWidth=0.5;" parent="1" vertex="1">
          <mxGeometry x="636" y="318" width="54" height="54" as="geometry" />
        </mxCell>
        <mxCell id="97Chy65jWuC5q2Ija_HS-33" value="" style="endArrow=blockThin;html=1;rounded=0;strokeWidth=0.5;endFill=1;strokeColor=default;entryX=0;entryY=0.5;entryDx=0;entryDy=0;dashed=1;exitX=1;exitY=0.5;exitDx=0;exitDy=0;" parent="1" source="97Chy65jWuC5q2Ija_HS-23" target="97Chy65jWuC5q2Ija_HS-32" edge="1">
          <mxGeometry width="50" height="50" relative="1" as="geometry">
            <mxPoint x="560" y="345" as="sourcePoint" />
            <mxPoint x="493" y="355" as="targetPoint" />
            <Array as="points" />
          </mxGeometry>
        </mxCell>
        <mxCell id="97Chy65jWuC5q2Ija_HS-34" value="event" style="edgeLabel;html=1;align=center;verticalAlign=middle;resizable=0;points=[];fontFamily=Lucida Console;" parent="97Chy65jWuC5q2Ija_HS-33" vertex="1" connectable="0">
          <mxGeometry x="-0.2054" y="1" relative="1" as="geometry">
            <mxPoint as="offset" />
          </mxGeometry>
        </mxCell>
        <mxCell id="97Chy65jWuC5q2Ija_HS-36" value="" style="endArrow=blockThin;html=1;rounded=0;strokeWidth=0.5;endFill=1;strokeColor=default;exitX=0.475;exitY=0;exitDx=0;exitDy=0;entryX=0.75;entryY=1;entryDx=0;entryDy=0;exitPerimeter=0;" parent="1" source="97Chy65jWuC5q2Ija_HS-48" target="97Chy65jWuC5q2Ija_HS-23" edge="1">
          <mxGeometry width="50" height="50" relative="1" as="geometry">
            <mxPoint x="544" y="419" as="sourcePoint" />
            <mxPoint x="520" y="419" as="targetPoint" />
            <Array as="points">
              <mxPoint x="569" y="383" />
              <mxPoint x="536" y="383" />
            </Array>
          </mxGeometry>
        </mxCell>
        <mxCell id="97Chy65jWuC5q2Ija_HS-38" value="" style="endArrow=blockThin;html=1;rounded=0;strokeWidth=0.5;endFill=1;strokeColor=default;exitX=0.001;exitY=0.499;exitDx=0;exitDy=0;entryX=1.001;entryY=0.499;entryDx=0;entryDy=0;dashed=1;exitPerimeter=0;entryPerimeter=0;" parent="1" source="97Chy65jWuC5q2Ija_HS-48" target="97Chy65jWuC5q2Ija_HS-49" edge="1">
          <mxGeometry width="50" height="50" relative="1" as="geometry">
            <mxPoint x="534" y="438.76" as="sourcePoint" />
            <mxPoint x="510" y="438.76" as="targetPoint" />
            <Array as="points" />
          </mxGeometry>
        </mxCell>
        <mxCell id="97Chy65jWuC5q2Ija_HS-40" value="" style="endArrow=blockThin;html=1;rounded=0;strokeWidth=0.5;endFill=1;strokeColor=default;entryX=1.005;entryY=0.532;entryDx=0;entryDy=0;entryPerimeter=0;exitX=0.5;exitY=1;exitDx=0;exitDy=0;" parent="1" source="97Chy65jWuC5q2Ija_HS-32" target="97Chy65jWuC5q2Ija_HS-48" edge="1">
          <mxGeometry width="50" height="50" relative="1" as="geometry">
            <mxPoint x="650" y="373" as="sourcePoint" />
            <mxPoint x="604" y="442" as="targetPoint" />
            <Array as="points">
              <mxPoint x="663" y="442" />
            </Array>
          </mxGeometry>
        </mxCell>
        <mxCell id="97Chy65jWuC5q2Ija_HS-41" value="&lt;font face=&quot;Lucida Console&quot;&gt;event&lt;/font&gt;" style="edgeLabel;html=1;align=center;verticalAlign=middle;resizable=0;points=[];" parent="97Chy65jWuC5q2Ija_HS-40" vertex="1" connectable="0">
          <mxGeometry x="0.4343" relative="1" as="geometry">
            <mxPoint x="15" y="-34" as="offset" />
          </mxGeometry>
        </mxCell>
        <mxCell id="97Chy65jWuC5q2Ija_HS-46" value="&lt;font face=&quot;Lucida Console&quot;&gt;MongoDB&lt;/font&gt;" style="strokeWidth=0.5;html=1;shape=mxgraph.flowchart.direct_data;whiteSpace=wrap;" parent="1" vertex="1">
          <mxGeometry x="517" y="502" width="100" height="28" as="geometry" />
        </mxCell>
        <mxCell id="97Chy65jWuC5q2Ija_HS-47" value="" style="endArrow=blockThin;html=1;rounded=0;strokeWidth=0.5;endFill=1;strokeColor=default;entryX=0.5;entryY=0;entryDx=0;entryDy=0;entryPerimeter=0;exitX=0.455;exitY=0.995;exitDx=0;exitDy=0;exitPerimeter=0;" parent="1" source="97Chy65jWuC5q2Ija_HS-48" target="97Chy65jWuC5q2Ija_HS-46" edge="1">
          <mxGeometry width="50" height="50" relative="1" as="geometry">
            <mxPoint x="560" y="473" as="sourcePoint" />
            <mxPoint x="580.5" y="523" as="targetPoint" />
            <Array as="points" />
          </mxGeometry>
        </mxCell>
        <mxCell id="97Chy65jWuC5q2Ija_HS-48" value="" style="verticalLabelPosition=bottom;verticalAlign=top;html=1;shape=mxgraph.basic.rect;fillColor2=none;strokeWidth=0.5;size=20;indent=5;dashed=1;fillColor=none;" parent="1" vertex="1">
          <mxGeometry x="523" y="392" width="97" height="94" as="geometry" />
        </mxCell>
        <mxCell id="97Chy65jWuC5q2Ija_HS-49" value="" style="verticalLabelPosition=bottom;verticalAlign=top;html=1;shape=mxgraph.basic.rect;fillColor2=none;strokeWidth=0.5;size=20;indent=5;dashed=1;fillColor=none;" parent="1" vertex="1">
          <mxGeometry x="408" y="392" width="97" height="94" as="geometry" />
        </mxCell>
        <mxCell id="97Chy65jWuC5q2Ija_HS-52" value="react-pilot" style="rounded=1;whiteSpace=wrap;html=1;strokeWidth=0.5;fontFamily=Lucida Console;fillColor=#f5f5f5;fontColor=#333333;strokeColor=#666666;" parent="1" vertex="1">
          <mxGeometry x="350" y="250" width="80" height="20" as="geometry" />
        </mxCell>
        <mxCell id="97Chy65jWuC5q2Ija_HS-53" value="" style="endArrow=blockThin;html=1;rounded=0;strokeWidth=0.5;endFill=1;strokeColor=default;exitX=0.471;exitY=1.036;exitDx=0;exitDy=0;entryX=0.5;entryY=0;entryDx=0;entryDy=0;exitPerimeter=0;" parent="1" source="97Chy65jWuC5q2Ija_HS-5" target="97Chy65jWuC5q2Ija_HS-52" edge="1">
          <mxGeometry width="50" height="50" relative="1" as="geometry">
            <mxPoint x="458" y="223" as="sourcePoint" />
            <mxPoint x="440" y="223" as="targetPoint" />
            <Array as="points" />
          </mxGeometry>
        </mxCell>
        <mxCell id="97Chy65jWuC5q2Ija_HS-55" value="Redis" style="shape=cylinder3;whiteSpace=wrap;html=1;boundedLbl=1;backgroundOutline=1;size=5.4925373134328765;strokeWidth=0.5;fontFamily=Lucida Console;" parent="1" vertex="1">
          <mxGeometry x="329" y="419" width="35" height="44" as="geometry" />
        </mxCell>
        <mxCell id="97Chy65jWuC5q2Ija_HS-56" value="MySQL" style="shape=cylinder3;whiteSpace=wrap;html=1;boundedLbl=1;backgroundOutline=1;size=5.4925373134328765;strokeWidth=0.5;fontFamily=Lucida Console;" parent="1" vertex="1">
          <mxGeometry x="281" y="493" width="60" height="37" as="geometry" />
        </mxCell>
        <mxCell id="97Chy65jWuC5q2Ija_HS-58" value="" style="endArrow=blockThin;html=1;rounded=0;strokeWidth=0.5;endFill=1;strokeColor=default;entryX=0;entryY=0.5;entryDx=0;entryDy=0;entryPerimeter=0;exitX=0.112;exitY=1.001;exitDx=0;exitDy=0;exitPerimeter=0;" parent="1" source="97Chy65jWuC5q2Ija_HS-1" target="97Chy65jWuC5q2Ija_HS-56" edge="1">
          <mxGeometry width="50" height="50" relative="1" as="geometry">
            <mxPoint x="256" y="393" as="sourcePoint" />
            <mxPoint x="250" y="513" as="targetPoint" />
            <Array as="points">
              <mxPoint x="256" y="511" />
            </Array>
          </mxGeometry>
        </mxCell>
        <mxCell id="97Chy65jWuC5q2Ija_HS-61" value="" style="endArrow=blockThin;html=1;rounded=0;strokeWidth=0.5;endFill=1;strokeColor=default;entryX=0.5;entryY=0;entryDx=0;entryDy=0;entryPerimeter=0;exitX=0.331;exitY=0.993;exitDx=0;exitDy=0;exitPerimeter=0;" parent="1" target="97Chy65jWuC5q2Ija_HS-55" edge="1">
          <mxGeometry width="50" height="50" relative="1" as="geometry">
            <mxPoint x="346.71000000000004" y="391.3069999999998" as="sourcePoint" />
            <mxPoint x="334.5" y="419" as="targetPoint" />
            <Array as="points" />
          </mxGeometry>
        </mxCell>
        <mxCell id="97Chy65jWuC5q2Ija_HS-63" value="" style="endArrow=blockThin;html=1;rounded=0;strokeWidth=0.5;endFill=1;strokeColor=default;dashed=1;entryX=-0.001;entryY=0.519;entryDx=0;entryDy=0;entryPerimeter=0;" parent="1" target="97Chy65jWuC5q2Ija_HS-49" edge="1">
          <mxGeometry width="50" height="50" relative="1" as="geometry">
            <mxPoint x="364" y="441.21000000000004" as="sourcePoint" />
            <mxPoint x="412.097" y="440.78200000000004" as="targetPoint" />
            <Array as="points" />
          </mxGeometry>
        </mxCell>
        <mxCell id="97Chy65jWuC5q2Ija_HS-64" value="" style="endArrow=blockThin;html=1;rounded=0;strokeWidth=0.5;endFill=1;strokeColor=default;dashed=1;exitX=1;exitY=0;exitDx=0;exitDy=13.746268656716438;exitPerimeter=0;entryX=0.428;entryY=0.986;entryDx=0;entryDy=0;entryPerimeter=0;" parent="1" source="97Chy65jWuC5q2Ija_HS-55" target="97Chy65jWuC5q2Ija_HS-1" edge="1">
          <mxGeometry width="50" height="50" relative="1" as="geometry">
            <mxPoint x="351" y="451" as="sourcePoint" />
            <mxPoint x="360" y="393" as="targetPoint" />
            <Array as="points">
              <mxPoint x="385" y="433" />
            </Array>
          </mxGeometry>
        </mxCell>
        <mxCell id="97Chy65jWuC5q2Ija_HS-65" value="" style="endArrow=blockThin;html=1;rounded=0;strokeWidth=0.5;endFill=1;strokeColor=default;dashed=1;exitX=0.145;exitY=0;exitDx=0;exitDy=1.592835820895534;exitPerimeter=0;" parent="1" source="97Chy65jWuC5q2Ija_HS-56" edge="1">
          <mxGeometry width="50" height="50" relative="1" as="geometry">
            <mxPoint x="351" y="451" as="sourcePoint" />
            <mxPoint x="290" y="393" as="targetPoint" />
            <Array as="points">
              <mxPoint x="290" y="463" />
            </Array>
          </mxGeometry>
        </mxCell>
        <mxCell id="XEAFV6k1Xe4pnvFAYNuf-1" value="" style="endArrow=blockThin;html=1;rounded=0;strokeWidth=0.5;endFill=1;strokeColor=default;exitX=0.53;exitY=1.004;exitDx=0;exitDy=0;exitPerimeter=0;entryX=1;entryY=0.5;entryDx=0;entryDy=0;entryPerimeter=0;" edge="1" parent="1" source="97Chy65jWuC5q2Ija_HS-49" target="97Chy65jWuC5q2Ija_HS-56">
          <mxGeometry width="50" height="50" relative="1" as="geometry">
            <mxPoint x="346" y="502.21000000000004" as="sourcePoint" />
            <mxPoint x="350" y="520" as="targetPoint" />
            <Array as="points">
              <mxPoint x="460" y="510" />
            </Array>
          </mxGeometry>
        </mxCell>
        <mxCell id="XEAFV6k1Xe4pnvFAYNuf-2" value="" style="endArrow=blockThin;html=1;rounded=0;strokeWidth=0.5;endFill=1;strokeColor=default;dashed=1;entryX=0.008;entryY=0.932;entryDx=0;entryDy=0;entryPerimeter=0;exitX=0.5;exitY=0;exitDx=0;exitDy=0;exitPerimeter=0;" edge="1" parent="1" source="97Chy65jWuC5q2Ija_HS-56" target="97Chy65jWuC5q2Ija_HS-49">
          <mxGeometry width="50" height="50" relative="1" as="geometry">
            <mxPoint x="374" y="451.21000000000004" as="sourcePoint" />
            <mxPoint x="418" y="451" as="targetPoint" />
            <Array as="points">
              <mxPoint x="320" y="480" />
            </Array>
          </mxGeometry>
        </mxCell>
        <mxCell id="XEAFV6k1Xe4pnvFAYNuf-3" value="" style="endArrow=blockThin;html=1;rounded=0;strokeWidth=0.5;endFill=1;strokeColor=default;dashed=1;exitX=0.33;exitY=0.009;exitDx=0;exitDy=0;exitPerimeter=0;entryX=0.28;entryY=0.999;entryDx=0;entryDy=0;entryPerimeter=0;" edge="1" parent="1">
          <mxGeometry width="50" height="50" relative="1" as="geometry">
            <mxPoint x="556" y="502.29304" as="sourcePoint" />
            <mxPoint x="556.1600000000001" y="485.90600000000006" as="targetPoint" />
            <Array as="points" />
          </mxGeometry>
        </mxCell>
      </root>
    </mxGraphModel>
  </diagram>
</mxfile>
